<?xml version="1.0" encoding="UTF-8"?>
<svg xmlns="http://www.w3.org/2000/svg" baseProfile="tiny" version="1.2" viewBox="0 0 113.39 113.39">
  <!-- Generator: Adobe Illustrator 28.7.4, SVG Export Plug-In . SVG Version: 1.2.0 Build 166)  -->
  <g>
    <g id="_レイヤー_1" data-name="レイヤー_1">
      <g id="_編集モード" data-name="編集モード">
        <path d="M106,39.8c-1.09-1.8-4.22-2.08-5.82-.52-2.48,2.41-6.2,5.87-10.36,9.24-.07.29-.12.6-.18.9-.53,2.63-.75,5.32-.68,8,.05,2.19.31,4.37.75,6.51,0,.16.06.32.1.48,3.78,2.93,7.4,6.08,10.83,9.42,1.62,1.57,4.81,1.24,5.86-.61,2.79-5.11,4.19-10.86,4.06-16.68-.01-5.89-1.58-11.66-4.56-16.74Z" fill="#040000"/>
        <path d="M29.41,79.08s11,9.73,16.06,12.23c5.03,2.49,11.13.44,13.63-4.6,0,0,0,0,0,0,1.03-2.05,1.34-4.38.9-6.63-1.91-2.82-6.35-10.64-6.35-24.08s3.46-19.95,5-23.2l-9.81-7.8c-4.76-3.75-11.65-2.94-15.42,1.8l-6.12,7.78h0c3.42,6.14,5.4,12.98,5.8,20,.67,16.6-3.69,24.5-3.69,24.5Z" fill="#040000"/>
        <path d="M21.65,36.46c-11.37,4.45-18.79,11.74-18.82,20,0,8.82,8.39,16.59,21.07,21,0,0,3.88-6.71,3.64-19.93-.26-14.65-5.89-21.07-5.89-21.07ZM15.29,54.86c-1.56,0-2.83-1.27-2.83-2.83s1.27-2.83,2.83-2.83c1.55,0,2.81,1.25,2.83,2.8.02,1.56-1.24,2.84-2.8,2.86-.01,0-.02,0-.03,0Z" fill="#040000"/>
        <path d="M85,44.8l-2.42-5.8c-2.28-5.73-8.78-8.53-14.51-6.25,0,0,0,0,0,0l-3.71,1.48h0s2-.8,0,0c-2.76,4.2-5,10.65-5,23.27,0,13.92,6.62,21,6.62,21h0s4.81,4.36,7.16,5.94c4.41,3,8.35,1.05,10.7-2.44,2.62-3.89,3.73-6.43,1.25-13.54-1.24-3.88-1.84-7.93-1.77-12-.06-3.95.51-7.89,1.68-11.66Z" fill="#040000"/>
      </g>
    </g>
  </g>
</svg>